# xmcd
#
# Track frame offsets:
#	150
#	12464
#	24306
#	36576
#	46817
#	56438
#	66551
#	76747
#	89265
#	104868
#
# Disc length: 1503 seconds
#
# Revision: 0
# Processed by: cddbd v1.5.2PL0 Copyright (c) Steve Scherf et al.
# Submitted via: EasyCDDAExtractor 16.1.0.1
#
DISCID=8205dd0a
DTITLE=Tonya Lowman - It's Gonna Take A Long Time
DYEAR=2006
DGENRE=Bluegrass
TTITLE0=Here In My Little Room
TTITLE1=Old Forgotten Homeplace
TTITLE2=Clarence's Song
TTITLE3=Runaway Train
TTITLE4=Song For Mama
TTITLE5=Whatcha Wanna Do
TTITLE6=It's Gonna Take A Long Time
TTITLE7=Foothills Of Caroline
TTITLE8=Nail Scarred Hands
TTITLE9=When I Get Home
EXTD=
EXTT0=
EXTT1=
EXTT2=
EXTT3=
EXTT4=
EXTT5=
EXTT6=
EXTT7=
EXTT8=
EXTT9=
PLAYORDER=
